# MagicaVoxel @ Ephtracy

# group
o 

# material
mtllib textIcon.mtl
usemtl palette

# normals
vn -1 0 0
vn 1 0 0
vn 0 0 1
vn 0 0 -1
vn 0 -1 0
vn 0 1 0

# texcoords
vt 0.0175781 0.5
vt 0.0214844 0.5
vt 0.869141 0.5

# verts
v 0 2 0
v 0 2 -4
v 0 2.1 0
v 0 2.1 -4
v 0 2.2 0
v 0 2.2 -4
v 0.8 2.1 -0.7
v 0.8 2.1 -3.3
v 0.8 2.2 -0.7
v 0.8 2.2 -3.3
v 3.6 2.1 -0.3
v 3.6 2.1 -3.7
v 3.6 2.2 -0.3
v 3.6 2.2 -3.7
v 0.4 2.1 -0.3
v 0.4 2.1 -3.7
v 0.4 2.2 -0.3
v 0.4 2.2 -3.7
v 0.9 2.1 -0.8
v 0.9 2.1 -1.9
v 0.9 2.1 -2.1
v 0.9 2.1 -3.2
v 0.9 2.2 -0.8
v 0.9 2.2 -1.9
v 0.9 2.2 -2.1
v 0.9 2.2 -3.2
v 1.2 2.1 -0.7
v 1.2 2.1 -0.8
v 1.2 2.1 -3.2
v 1.2 2.1 -3.3
v 1.2 2.2 -0.7
v 1.2 2.2 -0.8
v 1.2 2.2 -3.2
v 1.2 2.2 -3.3
v 3.3 2.1 -1.9
v 3.3 2.1 -2.1
v 3.3 2.2 -1.9
v 3.3 2.2 -2.1
v 4 2 0
v 4 2 -4
v 4 2.1 0
v 4 2.1 -4
v 4 2.2 0
v 4 2.2 -4
v 0 2 0
v 0 2.1 0
v 0 2.2 0
v 4 2 0
v 4 2.1 0
v 4 2.2 0
v 0.8 2.1 -0.7
v 0.8 2.2 -0.7
v 1.2 2.1 -0.7
v 1.2 2.2 -0.7
v 0.9 2.1 -1.9
v 0.9 2.2 -1.9
v 3.3 2.1 -1.9
v 3.3 2.2 -1.9
v 0.9 2.1 -3.2
v 0.9 2.2 -3.2
v 1.2 2.1 -3.2
v 1.2 2.2 -3.2
v 0.4 2.1 -3.7
v 0.4 2.2 -3.7
v 3.6 2.1 -3.7
v 3.6 2.2 -3.7
v 0.4 2.1 -0.3
v 0.4 2.2 -0.3
v 3.6 2.1 -0.3
v 3.6 2.2 -0.3
v 0.9 2.1 -0.8
v 0.9 2.2 -0.8
v 1.2 2.1 -0.8
v 1.2 2.2 -0.8
v 0.9 2.1 -2.1
v 0.9 2.2 -2.1
v 3.3 2.1 -2.1
v 3.3 2.2 -2.1
v 0.8 2.1 -3.3
v 0.8 2.2 -3.3
v 1.2 2.1 -3.3
v 1.2 2.2 -3.3
v 0 2 -4
v 0 2.1 -4
v 0 2.2 -4
v 4 2 -4
v 4 2.1 -4
v 4 2.2 -4
v 0 2 0
v 4 2 0
v 0 2 -4
v 4 2 -4
v 0.4 2.1 -0.3
v 3.6 2.1 -0.3
v 0.8 2.1 -0.7
v 1.2 2.1 -0.7
v 0.9 2.1 -0.8
v 1.2 2.1 -0.8
v 0.9 2.1 -1.9
v 3.3 2.1 -1.9
v 0.9 2.1 -2.1
v 3.3 2.1 -2.1
v 0.9 2.1 -3.2
v 1.2 2.1 -3.2
v 0.8 2.1 -3.3
v 1.2 2.1 -3.3
v 0.4 2.1 -3.7
v 3.6 2.1 -3.7
v 0 2.2 0
v 4 2.2 0
v 0.4 2.2 -0.3
v 3.6 2.2 -0.3
v 0.8 2.2 -0.7
v 1.2 2.2 -0.7
v 0.9 2.2 -0.8
v 1.2 2.2 -0.8
v 0.9 2.2 -1.9
v 3.3 2.2 -1.9
v 0.9 2.2 -2.1
v 3.3 2.2 -2.1
v 0.9 2.2 -3.2
v 1.2 2.2 -3.2
v 0.8 2.2 -3.3
v 1.2 2.2 -3.3
v 0.4 2.2 -3.7
v 3.6 2.2 -3.7
v 0 2.2 -4
v 4 2.2 -4

# faces
f 3/3/1 2/3/1 1/3/1
f 4/3/1 2/3/1 3/3/1
f 5/1/1 4/1/1 3/1/1
f 6/1/1 4/1/1 5/1/1
f 9/2/1 8/2/1 7/2/1
f 10/2/1 8/2/1 9/2/1
f 13/1/1 12/1/1 11/1/1
f 14/1/1 12/1/1 13/1/1
f 15/1/2 16/1/2 17/1/2
f 17/1/2 16/1/2 18/1/2
f 19/2/2 20/2/2 23/2/2
f 23/2/2 20/2/2 24/2/2
f 21/2/2 22/2/2 25/2/2
f 25/2/2 22/2/2 26/2/2
f 27/2/2 28/2/2 31/2/2
f 31/2/2 28/2/2 32/2/2
f 29/2/2 30/2/2 33/2/2
f 33/2/2 30/2/2 34/2/2
f 35/2/2 36/2/2 37/2/2
f 37/2/2 36/2/2 38/2/2
f 39/3/2 40/3/2 41/3/2
f 41/3/2 40/3/2 42/3/2
f 41/1/2 42/1/2 43/1/2
f 43/1/2 42/1/2 44/1/2
f 48/3/3 46/3/3 45/3/3
f 49/1/3 47/1/3 46/1/3
f 49/3/3 46/3/3 48/3/3
f 50/1/3 47/1/3 49/1/3
f 53/2/3 52/2/3 51/2/3
f 54/2/3 52/2/3 53/2/3
f 57/2/3 56/2/3 55/2/3
f 58/2/3 56/2/3 57/2/3
f 61/2/3 60/2/3 59/2/3
f 62/2/3 60/2/3 61/2/3
f 65/1/3 64/1/3 63/1/3
f 66/1/3 64/1/3 65/1/3
f 67/1/4 68/1/4 69/1/4
f 69/1/4 68/1/4 70/1/4
f 71/2/4 72/2/4 73/2/4
f 73/2/4 72/2/4 74/2/4
f 75/2/4 76/2/4 77/2/4
f 77/2/4 76/2/4 78/2/4
f 79/2/4 80/2/4 81/2/4
f 81/2/4 80/2/4 82/2/4
f 83/3/4 84/3/4 86/3/4
f 84/1/4 85/1/4 87/1/4
f 86/3/4 84/3/4 87/3/4
f 87/1/4 85/1/4 88/1/4
f 91/3/5 90/3/5 89/3/5
f 92/3/5 90/3/5 91/3/5
f 93/3/6 94/3/6 95/3/6
f 95/3/6 94/3/6 96/3/6
f 96/3/6 94/3/6 98/3/6
f 97/3/6 98/3/6 99/3/6
f 98/3/6 94/3/6 100/3/6
f 99/3/6 98/3/6 100/3/6
f 100/3/6 94/3/6 102/3/6
f 101/3/6 102/3/6 103/3/6
f 103/3/6 102/3/6 104/3/6
f 93/3/6 95/3/6 105/3/6
f 104/3/6 102/3/6 106/3/6
f 93/3/6 105/3/6 107/3/6
f 105/3/6 106/3/6 107/3/6
f 106/3/6 102/3/6 108/3/6
f 107/3/6 106/3/6 108/3/6
f 102/3/6 94/3/6 108/3/6
f 109/1/6 110/1/6 111/1/6
f 111/1/6 110/1/6 112/1/6
f 113/2/6 114/2/6 115/2/6
f 115/2/6 114/2/6 116/2/6
f 113/2/6 115/2/6 117/2/6
f 113/2/6 117/2/6 119/2/6
f 117/2/6 118/2/6 119/2/6
f 119/2/6 118/2/6 120/2/6
f 113/2/6 119/2/6 121/2/6
f 113/2/6 121/2/6 123/2/6
f 121/2/6 122/2/6 123/2/6
f 123/2/6 122/2/6 124/2/6
f 109/1/6 111/1/6 125/1/6
f 112/1/6 110/1/6 126/1/6
f 109/1/6 125/1/6 127/1/6
f 125/1/6 126/1/6 127/1/6
f 126/1/6 110/1/6 128/1/6
f 127/1/6 126/1/6 128/1/6
